<!DOCTYPE svg PUBLIC "-//W3C//DTD SVG 1.1//EN" "http://www.w3.org/Graphics/SVG/1.1/DTD/svg11.dtd">
<!-- Uploaded to: SVG Repo, www.svgrepo.com, Transformed by: SVG Repo Mixer Tools -->
<svg fill="#FFDB6E" height="800px" width="800px" version="1.1" id="Layer_1" xmlns="http://www.w3.org/2000/svg" xmlns:xlink="http://www.w3.org/1999/xlink" viewBox="0 0 512 512" xml:space="preserve">
<g id="SVGRepo_bgCarrier" stroke-width="0"/>
<g id="SVGRepo_tracerCarrier" stroke-linecap="round" stroke-linejoin="round"/>
<g id="SVGRepo_iconCarrier"> <g> <g> <path d="M59.734,0H9.482C4.245,0,0,4.245,0,9.482v50.252c0,5.237,4.245,9.482,9.482,9.482h50.252c5.237,0,9.482-4.245,9.482-9.482 V9.482C69.216,4.245,64.97,0,59.734,0z M50.252,50.252H18.964V18.964h31.288V50.252z"/> </g> </g> <g> <g> <path d="M59.734,442.784H9.482c-5.237,0-9.482,4.245-9.482,9.482v50.252C0,507.755,4.245,512,9.482,512h50.252 c5.237,0,9.482-4.245,9.482-9.482v-50.252C69.216,447.03,64.97,442.784,59.734,442.784z M50.252,493.036H18.964v-31.288h31.288 V493.036z"/> </g> </g> <g> <g> <path d="M502.518,0h-50.252c-5.237,0-9.482,4.245-9.482,9.482v50.252c0,5.237,4.245,9.482,9.482,9.482h50.252 c5.237,0,9.482-4.245,9.482-9.482V9.482C512,4.245,507.755,0,502.518,0z M493.036,50.252h-31.288V18.964h31.288V50.252z"/> </g> </g> <g> <g> <path d="M502.518,442.784h-50.252c-5.237,0-9.482,4.245-9.482,9.482v50.252c0,5.237,4.245,9.482,9.482,9.482h50.252 c5.237,0,9.482-4.245,9.482-9.482v-50.252C512,447.03,507.755,442.784,502.518,442.784z M493.036,493.036h-31.288v-31.288h31.288 V493.036z"/> </g> </g> <g> <g> <path d="M151.378,25.13h-22.757c-5.237,0-9.482,4.245-9.482,9.482s4.245,9.482,9.482,9.482h22.757 c5.237,0,9.482-4.245,9.482-9.482S156.615,25.13,151.378,25.13z"/> </g> </g> <g> <g> <path d="M384.002,25.13h-22.757c-5.237,0-9.482,4.245-9.482,9.482s4.245,9.482,9.482,9.482h22.757 c5.237,0,9.482-4.245,9.482-9.482S389.238,25.13,384.002,25.13z"/> </g> </g> <g> <g> <path d="M325.846,25.13h-22.757c-5.237,0-9.482,4.245-9.482,9.482s4.245,9.482,9.482,9.482h22.757 c5.237,0,9.482-4.245,9.482-9.482S331.082,25.13,325.846,25.13z"/> </g> </g> <g> <g> <path d="M209.534,25.13h-22.757c-5.237,0-9.482,4.245-9.482,9.482s4.245,9.482,9.482,9.482h22.757 c5.237,0,9.482-4.245,9.482-9.482S214.771,25.13,209.534,25.13z"/> </g> </g> <g> <g> <path d="M267.69,25.13h-22.757c-5.237,0-9.482,4.245-9.482,9.482s4.245,9.482,9.482,9.482h22.757c5.237,0,9.482-4.245,9.482-9.482 S272.927,25.13,267.69,25.13z"/> </g> </g> <g> <g> <path d="M151.378,467.91h-22.757c-5.237,0-9.482,4.245-9.482,9.482c0,5.237,4.245,9.482,9.482,9.482h22.757 c5.237,0,9.482-4.245,9.482-9.482C160.86,472.156,156.615,467.91,151.378,467.91z"/> </g> </g> <g> <g> <path d="M384.002,467.91h-22.757c-5.237,0-9.482,4.245-9.482,9.482c0,5.237,4.245,9.482,9.482,9.482h22.757 c5.237,0,9.482-4.245,9.482-9.482C393.484,472.156,389.238,467.91,384.002,467.91z"/> </g> </g> <g> <g> <path d="M325.846,467.91h-22.757c-5.237,0-9.482,4.245-9.482,9.482c0,5.237,4.245,9.482,9.482,9.482h22.757 c5.237,0,9.482-4.245,9.482-9.482C335.328,472.156,331.082,467.91,325.846,467.91z"/> </g> </g> <g> <g> <path d="M209.534,467.91h-22.757c-5.237,0-9.482,4.245-9.482,9.482c0,5.237,4.245,9.482,9.482,9.482h22.757 c5.237,0,9.482-4.245,9.482-9.482C219.016,472.156,214.771,467.91,209.534,467.91z"/> </g> </g> <g> <g> <path d="M267.69,467.91h-22.757c-5.237,0-9.482,4.245-9.482,9.482c0,5.237,4.245,9.482,9.482,9.482h22.757 c5.237,0,9.482-4.245,9.482-9.482C277.172,472.156,272.927,467.91,267.69,467.91z"/> </g> </g> <g> <g> <path d="M34.612,119.14c-5.237,0-9.482,4.245-9.482,9.482v22.757c0,5.237,4.245,9.482,9.482,9.482s9.482-4.245,9.482-9.482 v-22.757C44.094,123.385,39.848,119.14,34.612,119.14z"/> </g> </g> <g> <g> <path d="M34.612,177.296c-5.237,0-9.482,4.245-9.482,9.482v22.757c0,5.237,4.245,9.482,9.482,9.482s9.482-4.245,9.482-9.482 v-22.757C44.094,181.541,39.848,177.296,34.612,177.296z"/> </g> </g> <g> <g> <path d="M34.612,293.607c-5.237,0-9.482,4.245-9.482,9.482v22.757c0,5.237,4.245,9.482,9.482,9.482s9.482-4.245,9.482-9.482 v-22.757C44.094,297.853,39.848,293.607,34.612,293.607z"/> </g> </g> <g> <g> <path d="M34.612,235.451c-5.237,0-9.482,4.245-9.482,9.482v22.757c0,5.237,4.245,9.482,9.482,9.482s9.482-4.245,9.482-9.482 v-22.757C44.094,239.697,39.848,235.451,34.612,235.451z"/> </g> </g> <g> <g> <path d="M34.612,351.763c-5.237,0-9.482,4.245-9.482,9.482v22.757c0,5.237,4.245,9.482,9.482,9.482s9.482-4.245,9.482-9.482 v-22.757C44.094,356.008,39.848,351.763,34.612,351.763z"/> </g> </g> <g> <g> <path d="M477.392,351.763c-5.237,0-9.482,4.245-9.482,9.482v22.757c0,5.237,4.245,9.482,9.482,9.482 c5.237,0,9.482-4.245,9.482-9.482v-22.757C486.874,356.008,482.629,351.763,477.392,351.763z"/> </g> </g> <g> <g> <path d="M477.392,235.451c-5.237,0-9.482,4.245-9.482,9.482v22.757c0,5.237,4.245,9.482,9.482,9.482 c5.237,0,9.482-4.245,9.482-9.482v-22.757C486.874,239.697,482.629,235.451,477.392,235.451z"/> </g> </g> <g> <g> <path d="M477.392,293.607c-5.237,0-9.482,4.245-9.482,9.482v22.757c0,5.237,4.245,9.482,9.482,9.482 c5.237,0,9.482-4.245,9.482-9.482v-22.757C486.874,297.853,482.629,293.607,477.392,293.607z"/> </g> </g> <g> <g> <path d="M477.392,119.14c-5.237,0-9.482,4.245-9.482,9.482v22.757c0,5.237,4.245,9.482,9.482,9.482 c5.237,0,9.482-4.245,9.482-9.482v-22.757C486.874,123.385,482.629,119.14,477.392,119.14z"/> </g> </g> <g> <g> <path d="M477.392,177.296c-5.237,0-9.482,4.245-9.482,9.482v22.757c0,5.237,4.245,9.482,9.482,9.482 c5.237,0,9.482-4.245,9.482-9.482v-22.757C486.874,181.541,482.629,177.296,477.392,177.296z"/> </g> </g> <g> <g> <path d="M365.871,347.752c22.372-25.551,34.595-57.946,34.595-92.224c0.001-34.277-12.222-66.672-34.594-92.222l25.308-25.309 c3.703-3.703,3.703-9.707,0-13.409c-3.703-3.703-9.707-3.703-13.409,0l-25.313,25.312c-52.655-46.032-131.786-46.03-184.44,0 l-25.313-25.312c-3.703-3.704-9.707-3.703-13.409,0c-3.703,3.703-3.703,9.707,0,13.409l25.313,25.312 c-46.032,52.655-46.032,131.786,0,184.44l-25.313,25.313c-3.703,3.703-3.703,9.707,0,13.409c1.851,1.851,4.278,2.778,6.704,2.778 c2.426,0,4.853-0.925,6.704-2.778l25.309-25.309c25.551,22.372,57.946,34.595,92.224,34.595c34.278,0,66.672-12.223,92.224-34.595 l25.309,25.309c1.851,1.852,4.278,2.778,6.704,2.778c2.426,0,4.854-0.925,6.704-2.778c3.703-3.703,3.703-9.707,0-13.409 L365.871,347.752z M260.24,134.321c28.083,0,56.154,9.707,78.754,29.043l-78.756,78.756l-78.756-78.756 C204.087,144.023,232.149,134.321,260.24,134.321z M168.074,176.773l78.756,78.756l-78.754,78.754 C129.397,289.08,129.397,221.977,168.074,176.773z M181.484,347.693l78.754-78.754l78.754,78.754 C293.791,386.371,226.688,386.372,181.484,347.693z M352.431,334.311l-78.782-78.782l78.782-78.782 c18.811,21.942,29.073,49.573,29.073,78.782C381.503,284.738,371.242,312.369,352.431,334.311z"/> </g> </g> </g>
</svg>