<?xml version="1.0" encoding="iso-8859-1"?>
<!-- Uploaded to: SVG Repo, www.svgrepo.com, Generator: SVG Repo Mixer Tools -->
<svg height="800px" width="800px" version="1.1" id="Layer_1" xmlns="http://www.w3.org/2000/svg" xmlns:xlink="http://www.w3.org/1999/xlink" 
	 viewBox="0 0 511.999 511.999" xml:space="preserve">
<path style="fill:#F7B239;" d="M125.679,241.553l44.786,69.215c-1.437-0.076-2.874-0.113-4.324-0.113
	c-42.883,0-79.085,28.5-90.745,67.589c-1.626-0.126-3.265-0.214-4.916-0.214c-0.214,0-0.429,0-0.643,0.013l-45.757-70.728
	L125.679,241.553z"/>
<g>
	<path style="fill:#E6E6E6;" d="M195.915,73.74l50.925,58.249c4.79,5.483,7.437,13.362,7.437,20.849
		c0,3.567-0.605,7.059-1.866,10.16c-2.055,5.017-2.433,11.294-1.071,17.446l3.971,17.862l-37.853,8.42l-22.576,5.017l-3.971-17.874
		c-0.681-3.076-1.777-5.987-3.189-8.597c-1.424-2.597-3.164-4.903-5.156-6.744c-7.601-7.021-11.08-20.105-8.093-30.454
		L195.915,73.74z"/>
	<path style="fill:#E6E6E6;" d="M494.747,194.775l7.803,30.202h-0.013c-12.832,0.908-25.576-0.857-37.463-5.042
		c-11.899-4.172-22.941-10.765-32.395-19.5l24.971-18.681c4.059,5.445,9.693,9.744,16.563,12.151
		c6.87,2.42,13.979,2.571,20.521,0.87H494.747z"/>
</g>
<path style="fill:#F95428;" d="M485.911,160.602l8.836,34.173h-0.013c-6.542,1.702-13.651,1.55-20.521-0.87
	c-6.87-2.408-12.504-6.706-16.563-12.151L485.911,160.602z"/>
<polygon style="fill:#2BA5F7;" points="377.367,169.64 373.586,202.149 373.447,202.137 331.459,198.494 333.337,165.821 "/>
<g>
	<path style="fill:#F95428;" d="M373.586,202.149l-6.403,55.16c-11.773-6.517-24.668-11.231-38.32-13.803l2.597-45.013l41.988,3.643
		L373.586,202.149z"/>
	<path style="fill:#F95428;" d="M260.101,222.141l5.584,25.084c-21.126,6.668-39.908,18.605-54.782,34.286l-10.261-46.16
		L260.101,222.141z"/>
</g>
<g>
	<path style="fill:#F7B239;" d="M502.55,224.977l-54.732,155.864c-4.462-1.399-9.126-2.294-13.954-2.634
		c0.139-2.508,0.24-5.017,0.24-7.551c0-14.824-2.496-29.068-7.084-42.328l38.055-108.38v-0.013
		c11.887,4.185,24.631,5.95,37.463,5.042L502.55,224.977L502.55,224.977z"/>
	<path style="fill:#F7B239;" d="M465.075,219.935v0.013l-38.055,108.38c-5.42-15.693-13.777-30.013-24.416-42.303l30.063-85.589
		h0.013C442.133,209.17,453.175,215.763,465.075,219.935z"/>
	<path style="fill:#F7B239;" d="M271.143,207.242c0.202,0.882,0.29,1.765,0.29,2.634c0,5.572-3.845,10.601-9.517,11.849
		l-61.274,13.626l-1.815,0.403c-6.555,1.45-13.034-2.672-14.496-9.227c-0.202-0.882-0.29-1.765-0.29-2.634
		c0-5.572,3.845-10.601,9.517-11.862l1.324-0.29l22.576-5.017l37.853-8.42l1.336-0.29
		C263.189,196.565,269.681,200.687,271.143,207.242z"/>
	<path style="fill:#F7B239;" d="M362.43,11.924c0,0,87.896,62.635,14.937,157.716l-44.03-3.819l-5.899-11.496
		c-12.353-24.063-4.311-53.56,18.53-68.03c15.492-9.807,24.315-26.673,24.315-44.169c0-6.189-1.109-12.467-3.416-18.542
		L362.43,11.924z"/>
</g>
<path style="fill:#2BA5F7;" d="M447.818,380.841c24.769,7.765,42.744,30.883,42.744,58.211c0,33.706-27.316,61.034-61.022,61.034
	c-20.055,0-342.811,0-359.06,0c-33.706,0-61.022-27.328-61.022-61.034c0-33.479,26.963-60.669,60.379-61.009
	c0.214-0.013,0.429-0.013,0.643-0.013c1.651,0,3.29,0.088,4.916,0.214c11.66-39.089,47.862-67.589,90.745-67.589
	c1.45,0,2.887,0.038,4.324,0.113c6.227,0.277,12.303,1.172,18.164,2.597c5.811-11.735,13.336-22.463,22.273-31.853
	c14.874-15.681,33.656-27.618,54.782-34.286c12.303-3.895,25.4-5.987,38.988-5.987c8.269,0,16.349,0.769,24.189,2.269
	c13.651,2.571,26.547,7.286,38.32,13.803c13.45,7.424,25.437,17.181,35.421,28.715c10.639,12.29,18.996,26.61,24.416,42.303
	c4.588,13.261,7.084,27.505,7.084,42.328c0,2.534-0.101,5.042-0.24,7.551C438.692,378.547,443.356,379.442,447.818,380.841z"/>
<g>
	<path style="fill:#333333;" d="M511.699,222.607L495.06,158.23c-0.789-3.052-3.047-5.51-6.02-6.553s-6.272-0.537-8.797,1.351
		l-53.241,39.83c-1.503,1.124-2.637,2.669-3.258,4.438l-25.031,71.272c-6.59-6.074-13.766-11.522-21.435-16.244l9.183-79.054
		c23.296-31.179,32.794-62.485,28.214-93.09C407.61,32.988,369.538,5.373,367.921,4.22c-3.391-2.416-7.965-2.331-11.264,0.216
		c-3.298,2.546-4.54,6.949-3.061,10.843l4.432,11.657c7.195,18.933-0.004,40.54-17.115,51.375
		c-27.158,17.197-36.568,51.729-21.889,80.327l4.724,9.204l-3.732,64.796c-5.038-0.556-10.153-0.851-15.337-0.851
		c-10.825,0-21.526,1.272-31.92,3.72l-1.68-7.553c2.548-1.66,4.746-3.842,6.427-6.484c3.097-4.868,4.113-10.651,2.861-16.282
		c-1.25-5.633-4.621-10.441-9.488-13.538c-2.49-1.584-5.22-2.617-8.045-3.087l-2.26-10.172c-0.948-4.268-0.734-8.575,0.589-11.815
		c5.249-12.865,2.221-30.026-7.204-40.807l0,0l-50.92-58.255c-2.275-2.603-5.796-3.756-9.168-3.006
		c-3.377,0.75-6.073,3.285-7.032,6.608l-21.45,74.341c-3.968,13.757,0.556,30.585,10.761,40.015
		c2.57,2.375,4.588,6.185,5.537,10.454l2.261,10.174c-2.36,1.624-4.395,3.714-5.979,6.202c-3.098,4.868-4.114,10.651-2.863,16.282
		c1.25,5.633,4.621,10.441,9.489,13.539c2.645,1.683,5.559,2.749,8.572,3.174l7.437,33.452c-6.48,7.336-12.194,15.351-17.018,23.932
		c-2.569-0.436-5.152-0.76-7.741-1.003l-42.229-65.262c-1.363-2.105-3.506-3.584-5.957-4.108c-2.449-0.527-5.012-0.055-7.117,1.307
		L18.944,299.373c-4.383,2.836-5.637,8.69-2.801,13.073L53.77,370.6C22.948,378.126,0,405.954,0,439.057
		c0,38.862,31.616,70.478,70.478,70.478H429.54c38.862,0,70.478-31.616,70.478-70.478c0-27.827-16.425-52.239-40.285-63.631
		l51.732-147.321C512.087,226.336,512.168,224.423,511.699,222.607z M436.989,328.452l34.032-96.92
		c5.951,1.495,12.039,2.455,18.194,2.868L443.42,364.814C442.893,352.192,440.68,339.996,436.989,328.452z M448.093,200.694
		l8.451-6.32c4.234,3.686,9.141,6.561,14.534,8.456c4.808,1.688,9.803,2.536,14.81,2.536c0.604,0,1.209-0.033,1.813-0.058
		l2.642,10.225C475.203,214.498,460.553,209.353,448.093,200.694z M480.285,176.615l2.492,9.644
		c-1.838-0.226-3.659-0.645-5.435-1.269c-1.777-0.624-3.461-1.434-5.036-2.406L480.285,176.615z M437.165,216.141
		c5.066,3.529,10.432,6.576,16.015,9.131l-27.283,77.7c-3.706-6.61-7.934-12.89-12.633-18.778L437.165,216.141z M342.214,176.075
		l24.636,2.137l-1.595,13.723l-23.836-2.069L342.214,176.075z M351.029,94.286c17.772-11.254,28.126-30.568,28.649-50.693
		c7.21,10.268,13.929,23.57,16.296,39.388c3.701,24.735-4.058,50.544-23.047,76.78l-33.566-2.912l-3.514-6.845
		C325.663,130.167,332.19,106.215,351.029,94.286z M340.331,208.75l22.742,1.974L359.324,243c-6.608-2.84-13.477-5.183-20.564-6.978
		L340.331,208.75z M216.548,263.347l-4.629-20.819l41.002-9.114l1.713,7.699c-8.408,3.25-16.52,7.307-24.207,12.183
		C225.583,256.369,220.949,259.729,216.548,263.347z M198.588,226.118c-0.03,0.006-0.059,0.018-0.091,0.025l-1.722,0.383
		c-0.903,0.198-1.602-0.083-2.031-0.357c-0.43-0.274-0.982-0.788-1.182-1.689c-0.2-0.899,0.083-1.6,0.357-2.029
		s0.788-0.983,1.688-1.184l1.329-0.295c0,0,0,0,0.001,0l61.761-13.727c0.212-0.047,0.412-0.067,0.601-0.067
		c0.614,0,1.1,0.214,1.429,0.424c0.43,0.272,0.982,0.788,1.182,1.689c0.2,0.9-0.083,1.601-0.357,2.029
		c-0.272,0.43-0.788,0.983-1.688,1.184L198.588,226.118z M183.552,150.696l11.177-38.74l6.705,30.166
		c0.979,4.407,4.886,7.404,9.219,7.404c0.679,0,1.369-0.074,2.06-0.227c5.098-1.133,8.311-6.183,7.177-11.28l-6.705-30.164
		l26.534,30.356c4.733,5.415,6.497,14.935,3.932,21.22c-2.782,6.818-3.329,15.008-1.539,23.06l1.92,8.641l-41.973,9.329
		l-1.921-8.641c-1.79-8.053-5.753-15.241-11.162-20.239C183.993,166.976,181.558,157.606,183.552,150.696z M122.874,254.622
		l30.628,47.335c-18.201,2.183-35.339,9.09-50.149,20.299c-13.92,10.534-25.045,24.584-32.2,40.412L37.148,310.11L122.874,254.622z
		 M481.111,439.057c0,28.436-23.136,51.57-51.57,51.57H70.478c-28.435,0-51.57-23.134-51.57-51.57
		c0-28.436,23.136-51.57,51.57-51.57c1.249,0,2.609,0.061,4.161,0.184c4.465,0.355,8.535-2.448,9.809-6.72
		c10.692-35.82,44.285-60.838,81.692-60.838c6.79,0,13.604,0.821,20.249,2.44c4.3,1.045,8.749-1.027,10.712-4.993
		c20.402-41.243,61.623-66.863,107.577-66.863c66.15,0,119.966,53.817,119.966,119.966c0,2.125-0.072,4.416-0.219,7.001
		c-0.295,5.166,3.615,9.609,8.777,9.971C460.066,389.514,481.111,412.103,481.111,439.057z"/>
	<path style="fill:#333333;" d="M293.572,380.879c-0.026,0-0.052,0-0.079,0c-14.921-21.246-38.852-33.763-65.096-33.763
		c-43.901,0-79.618,35.717-79.618,79.618c0,5.221,4.232,9.454,9.454,9.454s9.454-4.233,9.454-9.454
		c0-33.476,27.234-60.711,60.711-60.711c21.479,0,40.934,11.003,52.038,29.432c1.874,3.11,5.36,4.871,8.981,4.533
		c1.431-0.134,2.829-0.203,4.155-0.203c24.168,0,43.83,19.662,43.83,43.83c0,5.221,4.232,9.454,9.454,9.454s9.454-4.233,9.454-9.454
		C356.31,409.023,328.167,380.879,293.572,380.879z"/>
</g>
</svg>