<?xml version="1.0" encoding="iso-8859-1"?>
<!-- Uploaded to: SVG Repo, www.svgrepo.com, Generator: SVG Repo Mixer Tools -->
<svg version="1.1" id="Layer_1" xmlns="http://www.w3.org/2000/svg" xmlns:xlink="http://www.w3.org/1999/xlink" 
	 viewBox="0 0 512 512" xml:space="preserve">
<circle style="fill:#2BA5F7;" cx="260.235" cy="255.532" r="130.75"/>
<g>
	<rect x="9.482" y="9.482" style="fill:#F7B239;" width="50.242" height="50.254"/>
	<rect x="9.482" y="452.264" style="fill:#F7B239;" width="50.242" height="50.254"/>
	<rect x="452.264" y="452.264" style="fill:#F7B239;" width="50.254" height="50.254"/>
	<rect x="452.264" y="9.482" style="fill:#F7B239;" width="50.254" height="50.254"/>
</g>
<g>
	<path style="fill:#333333;" d="M59.724,69.218H9.482C4.245,69.218,0,64.973,0,59.736V9.482C0,4.245,4.245,0,9.482,0h50.242
		c5.237,0,9.482,4.245,9.482,9.482v50.254C69.206,64.973,64.96,69.218,59.724,69.218z M18.964,50.254h31.278v-31.29H18.964V50.254z"
		/>
	<path style="fill:#333333;" d="M59.724,512H9.482C4.245,512,0,507.755,0,502.518v-50.254c0-5.237,4.245-9.482,9.482-9.482h50.242
		c5.237,0,9.482,4.245,9.482,9.482v50.254C69.206,507.755,64.96,512,59.724,512z M18.964,493.036h31.278v-31.29H18.964V493.036z"/>
	<path style="fill:#333333;" d="M502.518,69.218h-50.254c-5.237,0-9.482-4.245-9.482-9.482V9.482c0-5.237,4.245-9.482,9.482-9.482
		h50.254C507.755,0,512,4.245,512,9.482v50.254C512,64.973,507.756,69.218,502.518,69.218z M461.746,50.254h31.29v-31.29h-31.29
		V50.254z"/>
	<path style="fill:#333333;" d="M502.518,512h-50.254c-5.237,0-9.482-4.245-9.482-9.482v-50.254c0-5.237,4.245-9.482,9.482-9.482
		h50.254c5.237,0,9.482,4.245,9.482,9.482v50.254C512,507.755,507.756,512,502.518,512z M461.746,493.036h31.29v-31.29h-31.29
		V493.036z"/>
	<path style="fill:#333333;" d="M383.997,44.094h-22.757c-5.237,0-9.482-4.245-9.482-9.482c0-5.237,4.245-9.482,9.482-9.482h22.757
		c5.237,0,9.482,4.245,9.482,9.482C393.479,39.848,389.234,44.094,383.997,44.094z M325.842,44.094h-22.757
		c-5.237,0-9.482-4.245-9.482-9.482c0-5.237,4.245-9.482,9.482-9.482h22.757c5.237,0,9.482,4.245,9.482,9.482
		C335.323,39.848,331.078,44.094,325.842,44.094z M267.686,44.094h-22.757c-5.237,0-9.482-4.245-9.482-9.482
		c0-5.237,4.245-9.482,9.482-9.482h22.757c5.237,0,9.482,4.245,9.482,9.482C277.168,39.848,272.922,44.094,267.686,44.094z
		 M209.53,44.094h-22.757c-5.237,0-9.482-4.245-9.482-9.482c0-5.237,4.245-9.482,9.482-9.482h22.757
		c5.237,0,9.482,4.245,9.482,9.482C219.012,39.848,214.766,44.094,209.53,44.094z M151.374,44.094h-22.757
		c-5.237,0-9.482-4.245-9.482-9.482c0-5.237,4.245-9.482,9.482-9.482h22.757c5.237,0,9.482,4.245,9.482,9.482
		C160.856,39.848,156.61,44.094,151.374,44.094z"/>
	<path style="fill:#333333;" d="M383.997,486.875h-22.757c-5.237,0-9.482-4.245-9.482-9.482c0-5.237,4.245-9.482,9.482-9.482h22.757
		c5.237,0,9.482,4.245,9.482,9.482C393.479,482.63,389.234,486.875,383.997,486.875z M325.842,486.875h-22.757
		c-5.237,0-9.482-4.245-9.482-9.482c0-5.237,4.245-9.482,9.482-9.482h22.757c5.237,0,9.482,4.245,9.482,9.482
		C335.323,482.63,331.078,486.875,325.842,486.875z M267.686,486.875h-22.757c-5.237,0-9.482-4.245-9.482-9.482
		c0-5.237,4.245-9.482,9.482-9.482h22.757c5.237,0,9.482,4.245,9.482,9.482C277.168,482.63,272.922,486.875,267.686,486.875z
		 M209.53,486.875h-22.757c-5.237,0-9.482-4.245-9.482-9.482c0-5.237,4.245-9.482,9.482-9.482h22.757
		c5.237,0,9.482,4.245,9.482,9.482C219.012,482.63,214.766,486.875,209.53,486.875z M151.374,486.875h-22.757
		c-5.237,0-9.482-4.245-9.482-9.482c0-5.237,4.245-9.482,9.482-9.482h22.757c5.237,0,9.482,4.245,9.482,9.482
		C160.856,482.63,156.61,486.875,151.374,486.875z"/>
	<path style="fill:#333333;" d="M34.608,393.484c-5.237,0-9.482-4.245-9.482-9.482v-22.757c0-5.237,4.245-9.482,9.482-9.482
		s9.482,4.245,9.482,9.482v22.757C44.09,389.239,39.844,393.484,34.608,393.484z M34.608,335.329c-5.237,0-9.482-4.245-9.482-9.482
		V303.09c0-5.237,4.245-9.482,9.482-9.482s9.482,4.245,9.482,9.482v22.757C44.09,331.083,39.844,335.329,34.608,335.329z
		 M34.608,277.173c-5.237,0-9.482-4.245-9.482-9.482v-22.757c0-5.237,4.245-9.482,9.482-9.482s9.482,4.245,9.482,9.482v22.757
		C44.09,272.927,39.844,277.173,34.608,277.173z M34.608,219.017c-5.237,0-9.482-4.245-9.482-9.482v-22.757
		c0-5.237,4.245-9.482,9.482-9.482s9.482,4.245,9.482,9.482v22.757C44.09,214.771,39.844,219.017,34.608,219.017z M34.608,160.861
		c-5.237,0-9.482-4.245-9.482-9.482v-22.757c0-5.237,4.245-9.482,9.482-9.482s9.482,4.245,9.482,9.482v22.757
		C44.09,156.615,39.844,160.861,34.608,160.861z"/>
	<path style="fill:#333333;" d="M477.39,393.484c-5.237,0-9.482-4.245-9.482-9.482v-22.757c0-5.237,4.245-9.482,9.482-9.482
		s9.482,4.245,9.482,9.482v22.757C486.872,389.239,482.626,393.484,477.39,393.484z M477.39,335.329
		c-5.237,0-9.482-4.245-9.482-9.482V303.09c0-5.237,4.245-9.482,9.482-9.482s9.482,4.245,9.482,9.482v22.757
		C486.872,331.083,482.626,335.329,477.39,335.329z M477.39,277.173c-5.237,0-9.482-4.245-9.482-9.482v-22.757
		c0-5.237,4.245-9.482,9.482-9.482s9.482,4.245,9.482,9.482v22.757C486.872,272.927,482.626,277.173,477.39,277.173z
		 M477.39,219.017c-5.237,0-9.482-4.245-9.482-9.482v-22.757c0-5.237,4.245-9.482,9.482-9.482s9.482,4.245,9.482,9.482v22.757
		C486.872,214.771,482.626,219.017,477.39,219.017z M477.39,160.861c-5.237,0-9.482-4.245-9.482-9.482v-22.757
		c0-5.237,4.245-9.482,9.482-9.482s9.482,4.245,9.482,9.482v22.757C486.872,156.615,482.626,160.861,477.39,160.861z"/>
	<path style="fill:#333333;" d="M365.868,347.755c22.372-25.551,34.595-57.946,34.595-92.224s-12.223-66.673-34.595-92.224
		l25.308-25.309c3.703-3.703,3.703-9.707,0-13.409c-3.703-3.703-9.707-3.703-13.409,0l-25.313,25.312
		c-52.655-46.032-131.786-46.03-184.44,0l-25.313-25.312c-3.703-3.704-9.707-3.703-13.409,0c-3.703,3.703-3.703,9.707,0,13.409
		l25.313,25.312c-46.032,52.655-46.032,131.786,0,184.44l-25.313,25.313c-3.703,3.703-3.703,9.707,0,13.409
		c1.851,1.851,4.278,2.778,6.704,2.778s4.853-0.925,6.704-2.778l25.309-25.309c25.551,22.372,57.946,34.595,92.224,34.595
		c34.278,0,66.672-12.223,92.224-34.595l25.309,25.309c1.851,1.852,4.278,2.778,6.704,2.778c2.426,0,4.853-0.925,6.704-2.778
		c3.703-3.703,3.703-9.707,0-13.409L365.868,347.755z M381.501,255.53c0,29.209-10.262,56.84-29.073,78.782l-78.782-78.782
		l78.782-78.782C371.239,198.69,381.501,226.32,381.501,255.53z M260.235,134.323c28.083,0,56.155,9.707,78.755,29.043
		l-78.756,78.756l-78.756-78.756C204.083,144.024,232.146,134.323,260.235,134.323z M168.071,176.774l78.756,78.756l-78.755,78.755
		C129.393,289.082,129.392,221.979,168.071,176.774z M181.481,347.694l78.755-78.755l78.755,78.755
		C293.786,386.372,226.684,386.373,181.481,347.694z"/>
</g>
</svg>