<!DOCTYPE svg PUBLIC "-//W3C//DTD SVG 1.1//EN" "http://www.w3.org/Graphics/SVG/1.1/DTD/svg11.dtd">
<!-- Uploaded to: SVG Repo, www.svgrepo.com, Transformed by: SVG Repo Mixer Tools -->
<svg width="800px" height="800px" viewBox="0 0 48 48" xmlns="http://www.w3.org/2000/svg" fill="#FFBC5E">
<g id="SVGRepo_bgCarrier" stroke-width="0"/>
<g id="SVGRepo_tracerCarrier" stroke-linecap="round" stroke-linejoin="round"/>
<g id="SVGRepo_iconCarrier">
<defs>
<style>.a{fill:none;stroke:#000000;stroke-linecap:round;stroke-linejoin:round;}</style>
</defs>
<polyline class="a" points="13.005 5.5 16.673 11.129 13.005 16.757"/>
<polyline class="a" points="22.551 5.5 26.22 11.129 22.551 16.757"/>
<polyline class="a" points="32.097 5.5 35.766 11.129 32.097 16.757"/>
<line class="a" x1="5.4995" y1="16.7573" x2="42.4995" y2="16.7573"/>
<path class="a" d="M29.5168,28.2479l-7.3822-4.2624a1.27,1.27,0,0,0-1.9056,1.1V33.61a1.27,1.27,0,0,0,1.9056,1.1l7.3822-4.2624A1.27,1.27,0,0,0,29.5168,28.2479Z"/>
<path class="a" d="M40.5,5.5H7.5a2,2,0,0,0-2,2v33a2,2,0,0,0,2,2h33a2,2,0,0,0,2-2V7.5A2,2,0,0,0,40.5,5.5Z"/>
</g>
</svg>